<?xml version="1.0" encoding="UTF-8"?>
<svg id="Layer_1" data-name="Layer 1" xmlns="http://www.w3.org/2000/svg" viewBox="0 0 500 500">
  <defs>
    <style>
      .cls-1 {
        fill: #fff;
      }

      .cls-2 {
        fill: #00263e;
      }
    </style>
  </defs>
  <rect class="cls-2" width="500" height="500"/>
  <g>
    <path class="cls-1" d="M157.82,339.81c3.92,4.36,9.54,6.86,15.41,6.86,5.13,0,10.05-1.89,13.86-5.32,8.49-7.64,9.18-20.78,1.54-29.28l-55.86-62.06,55.86-62.07c7.64-8.49,6.95-21.63-1.54-29.28h0c-4.11-3.71-9.46-5.63-14.96-5.29-5.54.29-10.62,2.71-14.32,6.82l-68.35,75.95c-7.11,7.91-7.11,19.83,0,27.75l68.35,75.93Z"/>
    <path class="cls-1" d="M342.18,160.18c-7.64-8.48-20.77-9.18-29.27-1.53-8.49,7.64-9.18,20.78-1.54,29.28l55.86,62.06-55.86,62.07c-7.64,8.49-6.95,21.63,1.54,29.29,3.81,3.42,8.74,5.31,13.86,5.31,5.88,0,11.49-2.5,15.41-6.85l68.35-75.95c7.11-7.91,7.11-19.83,0-27.74l-68.35-75.95Z"/>
    <path class="cls-1" d="M286.32,102.08h-.02c-11.11-2.7-22.34,4.13-25.05,15.19l-62.75,255.58c-2.73,11.1,4.08,22.34,15.19,25.07,1.62.39,3.28.6,4.95.6,9.57,0,17.84-6.49,20.12-15.79l62.75-255.58c2.73-11.1-4.08-22.34-15.18-25.07h0Z"/>
  </g>
</svg>